# xmcd CD database file generated by Grip 3.0.3
#
# Track frame offsets:
#       187
#       13880
#       26050
#       41767
#       57727
#       71047
#       88632
#       101420
#       114202
#       129045
#       142907
#       156770
#
# Disc length: 2241 seconds
#
# Revision: 2
# Processed by: cddbd v1.4PL0 Copyright (c) Steve Scherf et al.
# Submitted via: Grip 3.0.3
#
DISCID=9c08bf0c
DTITLE=Tanya Tucker - Greatest Hits
DYEAR=1978
DGENRE=Country
TTITLE0=Here's Some Love
TTITLE1=Ridin' Rainbows
TTITLE2=Pride Of Franklin County
TTITLE3=Dancing The Night Away
TTITLE4=Wait 'Til Daddy Finds Out
TTITLE5=Let's Keep It That Way
TTITLE6=San Antonio Stroll
TTITLE7=Don't Believe My Heart Can Stand Another You
TTITLE8=Short Cut
TTITLE9=You've Got Me To Hold On To
TTITLE10=Lizzie And The Rain Man
TTITLE11=It's A Cowboy Lovin' Night
EXTD=
EXTT0=
EXTT1=
EXTT2=
EXTT3=
EXTT4=
EXTT5=
EXTT6=
EXTT7=
EXTT8=
EXTT9=
EXTT10=
EXTT11=
PLAYORDER=
